<?xml version="1.0" encoding="utf-8"?>
<!-- Generator: Adobe Illustrator 21.1.0, SVG Export Plug-In . SVG Version: 6.00 Build 0)  -->
<svg version="1.1" xmlns="http://www.w3.org/2000/svg" xmlns:xlink="http://www.w3.org/1999/xlink" x="0px" y="0px"
	 viewBox="0 0 64 64" style="enable-background:new 0 0 64 64;" xml:space="preserve">
<style type="text/css">
	.st0{fill:none;}
	.st1{fill:#5D9B99;stroke:#FFFFFF;stroke-width:0.25;stroke-miterlimit:10;}
	.st2{fill:#FFFFFF;}
	.st3{fill:#038EA5;}
	.st4{fill:#CACACA;}
	.st5{fill:#5D9B99;}
	.st6{fill:none;stroke:#038EA5;stroke-width:3;stroke-miterlimit:10;}
	.st7{fill:#038EA5;stroke:#CACACA;stroke-miterlimit:10;}
	.st8{fill:#FFFFFF;stroke:#038EA5;stroke-miterlimit:10;}
	.st9{fill:none;stroke:#038EA5;stroke-miterlimit:10;}
	.st10{clip-path:url(#SVGID_2_);fill:#038EA5;}
	.st11{fill:#CECECE;}
</style>
<g id="c-map_x5F__x5F_function--other">
</g>
<g id="c-map_x5F__x5F_function--target">
</g>
<g id="c-map_x5F__x5F_function--all">
</g>
<g id="c-map_x5F__x5F_pin--small">
</g>
<g id="c-map_x5F__x5F_pin--medium">
	<rect class="st0" width="64" height="64"/>
	<g id="pin_x5F_m_1_">
		<g>
			<path class="st3" d="M32,59.6c-1.4-1.4-10.1-10.5-10.1-17.3c0-5.5,4.5-10.1,10.1-10.1s10.1,4.5,10.1,10.1
				C42.1,49.2,33.4,58.3,32,59.6z"/>
			<path class="st2" d="M32,32.5c5.4,0,9.8,4.4,9.8,9.8c0,6.5-8,15.1-9.8,17c-1.8-1.9-9.8-10.5-9.8-17C22.2,36.9,26.6,32.5,32,32.5
				 M32,32c-5.7,0-10.3,4.6-10.3,10.3C21.7,49.9,32,60,32,60s10.3-10.1,10.3-17.7C42.3,36.6,37.7,32,32,32L32,32z"/>
		</g>
		<circle class="st2" cx="32" cy="42.3" r="5.1"/>
	</g>
</g>
<g id="c-map_x5F__x5F_pin--large">
</g>
<g id="c-carousel_x5F_next">
</g>
<g id="c-carousel_x5F_prev">
</g>
<g id="c-link_x5F_external">
</g>
<g id="c-card_x5F_schedule">
</g>
<g id="c-card_x5F_wireframe">
</g>
<g id="c-card_x5F_definition">
</g>
<g id="c-card_x5F_version">
</g>
<g id="c-card_x5F_developer">
</g>
<g id="c-card_x5F_cms">
</g>
<g id="c-card_x5F_javascript">
</g>
<g id="c-card_x5F_css">
</g>
<g id="c-card_x5F_html">
</g>
<g id="c-card_x5F_sort">
</g>
<g id="c-card_x5F_leader">
</g>
<g id="c-card_x5F_comment">
</g>
<g id="tone_x26_manner">
</g>
<g id="guide">
</g>
</svg>
