<svg xmlns="http://www.w3.org/2000/svg" viewBox="0 0 64 64"><defs><style>.cls-1{fill:none;}.cls-2{fill:#cacaca;stroke:#fff;stroke-miterlimit:10;stroke-width:0.5px;}.cls-3{fill:#fff;}</style></defs><title>c-map__pin--other_hide</title><g id="レイヤー_2" data-name="レイヤー 2"><g id="c-map__pin--other_hide"><rect class="cls-1" width="64" height="64"/><g id="pin_m"><path class="cls-2" d="M42.31,16.31C42.31,23.89,32,34,32,34S21.69,23.85,21.69,16.31a10.31,10.31,0,0,1,20.61,0Z"/><circle class="cls-3" cx="32" cy="16.31" r="5.13"/></g><g id="pin_m-2" data-name="pin_m"><path class="cls-2" d="M58,40.31C58,47.89,47.69,58,47.69,58S37.39,47.85,37.39,40.31a10.31,10.31,0,1,1,20.61,0Z"/><circle class="cls-3" cx="47.69" cy="40.31" r="5.13"/></g><g id="pin_m-3" data-name="pin_m"><path class="cls-2" d="M26.61,40.31C26.61,47.89,16.31,58,16.31,58S6,47.85,6,40.31a10.31,10.31,0,1,1,20.61,0Z"/><circle class="cls-3" cx="16.31" cy="40.31" r="5.13"/></g></g></g></svg>