<svg xmlns="http://www.w3.org/2000/svg" viewBox="0 0 64 64"><defs><style>.cls-1{fill:none;}.cls-2{fill:#0f6da3;}.cls-3{fill:#fff;}</style></defs><title>c-map__pin--medium</title><g id="レイヤー_2" data-name="レイヤー 2"><g id="c-map__pin--medium"><g id="pin_m"><rect class="cls-1" width="64" height="64"/><path class="cls-2" d="M32,59.65c-1.35-1.38-10.06-10.52-10.06-17.34a10.06,10.06,0,1,1,20.11,0C42.06,49.16,33.35,58.27,32,59.65Z"/><path class="cls-3" d="M32,32.5a9.82,9.82,0,0,1,9.81,9.81c0,6.5-8,15.14-9.8,17-1.79-1.85-9.81-10.51-9.81-17A9.82,9.82,0,0,1,32,32.5m0-.5A10.32,10.32,0,0,0,21.69,42.31C21.69,49.85,32,60,32,60S42.31,49.89,42.31,42.31A10.32,10.32,0,0,0,32,32Z"/><circle class="cls-3" cx="32" cy="42.31" r="5.13"/></g></g></g></svg>