<svg xmlns="http://www.w3.org/2000/svg" viewBox="0 0 64 64"><defs><style>.cls-1{fill:none;}.cls-2{fill:#cacaca;}.cls-3{fill:#fff;}</style></defs><title>c-map__pin--large_hide</title><g id="レイヤー_2" data-name="レイヤー 2"><g id="c-map__pin--large_hide"><rect class="cls-1" width="64" height="64"/><g id="pin_m"><path class="cls-2" d="M32,59.29c-2.71-2.76-20.11-21-20.11-34.68a20.11,20.11,0,0,1,40.22,0C52.11,38.32,34.71,56.54,32,59.29Z"/><path class="cls-3" d="M32,5A19.63,19.63,0,0,1,51.61,24.61c0,13-16,30.27-19.61,34-3.58-3.7-19.61-21-19.61-34A19.63,19.63,0,0,1,32,5m0-1A20.65,20.65,0,0,0,11.39,24.61C11.39,39.7,32,60,32,60S52.61,39.78,52.61,24.61A20.65,20.65,0,0,0,32,4Z"/><circle class="cls-3" cx="32" cy="24.61" r="10.27"/></g></g></g></svg>