<svg xmlns="http://www.w3.org/2000/svg" viewBox="0 0 64 64"><defs><style>.cls-1{fill:none;}.cls-2{fill:#cacaca;}</style></defs><title>c-map__pin--all_hide</title><g id="レイヤー_2" data-name="レイヤー 2"><g id="c-map__all_hide"><rect class="cls-1" width="64" height="64"/><path class="cls-2" d="M31.09,42.91c-1.66,0-2.64,0-3.55.09a33.68,33.68,0,0,0,.19-4.38V22.78A45.49,45.49,0,0,0,27.54,18h5.23a37.1,37.1,0,0,0-.19,4.74V37.57h5.81a22.49,22.49,0,0,0,4-.21v5.76a25.3,25.3,0,0,0-4-.21Z"/><path class="cls-2" d="M46.59,42.91c-1.66,0-2.64,0-3.55.09a33.68,33.68,0,0,0,.19-4.38V22.78A45.49,45.49,0,0,0,43,18h5.23a37.1,37.1,0,0,0-.19,4.74V37.57h5.81a22.49,22.49,0,0,0,4-.21v5.76a25.3,25.3,0,0,0-4-.21Z"/><path class="cls-2" d="M21.23,42.91a29.7,29.7,0,0,0-.58-3.24L20,37.12H13.16l-.65,2.55a21,21,0,0,0-.6,3.24H6.3a34.27,34.27,0,0,0,1.15-3.66l5.18-18.06A22,22,0,0,0,13.4,18h6.26a28.46,28.46,0,0,0,.82,3.24l5.21,18.06c.46,1.59.84,2.82,1.15,3.66ZM16.54,23.08l-2.23,9h4.51Z"/></g></g></svg>