<?xml version="1.0" encoding="utf-8"?>
<!-- Generator: Adobe Illustrator 21.1.0, SVG Export Plug-In . SVG Version: 6.00 Build 0)  -->
<svg version="1.1" xmlns="http://www.w3.org/2000/svg" xmlns:xlink="http://www.w3.org/1999/xlink" x="0px" y="0px"
	 viewBox="0 0 64 64" style="enable-background:new 0 0 64 64;" xml:space="preserve">
<style type="text/css">
	.st0{fill:none;}
	.st1{fill:#5D9B99;stroke:#FFFFFF;stroke-width:0.25;stroke-miterlimit:10;}
	.st2{fill:#FFFFFF;}
	.st3{fill:#038EA5;}
	.st4{fill:#CACACA;}
	.st5{fill:#5D9B99;}
	.st6{fill:none;stroke:#038EA5;stroke-width:3;stroke-miterlimit:10;}
	.st7{fill:#038EA5;stroke:#CACACA;stroke-miterlimit:10;}
	.st8{fill:#FFFFFF;stroke:#038EA5;stroke-miterlimit:10;}
	.st9{fill:none;stroke:#038EA5;stroke-miterlimit:10;}
	.st10{clip-path:url(#SVGID_2_);fill:#038EA5;}
	.st11{fill:#CECECE;}
</style>
<g id="c-map_x5F__x5F_function--other">
</g>
<g id="c-map_x5F__x5F_function--target">
</g>
<g id="c-map_x5F__x5F_function--all">
</g>
<g id="c-map_x5F__x5F_pin--small">
</g>
<g id="c-map_x5F__x5F_pin--medium">
</g>
<g id="c-map_x5F__x5F_pin--large">
	<rect class="st0" width="64" height="64"/>
	<g id="pin_x5F_m">
		<g>
			<path class="st3" d="M32,59.3c-2.7-2.8-20.1-21-20.1-34.7c0-11.1,9-20.1,20.1-20.1s20.1,9,20.1,20.1C52.1,38.3,34.7,56.5,32,59.3
				z"/>
			<path class="st2" d="M32,5c10.8,0,19.6,8.8,19.6,19.6c0,13-16,30.3-19.6,34c-3.6-3.7-19.6-21-19.6-34C12.4,13.8,21.2,5,32,5
				 M32,4c-11.4,0-20.6,9.3-20.6,20.6C11.4,39.7,32,60,32,60s20.6-20.2,20.6-35.4C52.6,13.3,43.4,4,32,4L32,4z"/>
		</g>
		<circle class="st2" cx="32" cy="24.6" r="10.3"/>
	</g>
</g>
<g id="c-carousel_x5F_next">
</g>
<g id="c-carousel_x5F_prev">
</g>
<g id="c-link_x5F_external">
</g>
<g id="c-card_x5F_schedule">
</g>
<g id="c-card_x5F_wireframe">
</g>
<g id="c-card_x5F_definition">
</g>
<g id="c-card_x5F_version">
</g>
<g id="c-card_x5F_developer">
</g>
<g id="c-card_x5F_cms">
</g>
<g id="c-card_x5F_javascript">
</g>
<g id="c-card_x5F_css">
</g>
<g id="c-card_x5F_html">
</g>
<g id="c-card_x5F_sort">
</g>
<g id="c-card_x5F_leader">
</g>
<g id="c-card_x5F_comment">
</g>
<g id="tone_x26_manner">
</g>
<g id="guide">
</g>
</svg>
